<svg xmlns="http://www.w3.org/2000/svg">
  <symbol id="devil.oper" viewBox="0 0 375 375">
    <g fill="currentColor">
      <path d="m172.3 347.1-162.4-98.1V131l162.4-97.5v102.8L74.8 190.6l97.5 54.9ZM202.7 347.1V245.5l97.6-54.9-97.6-54.3V33.4l162.4 97.5v118Z"/>
      <path d="M373.7 27.7c-.3-2.5-.5-5.3-1.8-7.5-.3-.5-1.1.4-1.4.6a8 8 0 0 0-1.9 2.4c-3.5 6.4-7.7 12.4-11.4 18.8-3.9 4.3-7.1 9.1-11.1 13.2-5.5 3.3-11.2 7-17 9.5-2.3 1.1-5.1 1.7-7.2 3.3l-.6.6c-.3.4-.6.8-.4.8l.4-.1c.9 5 2.7 9.9 4.7 14.6 2.4 5.4 7.8 8.2 12.8 10.7 2.4 1.6 5.1 2.6 7.8 3.7 2 .7 4 1.9 6.1 1.6.8 0 1.3-.6 1.8-1.2a13.4 13.4 0 0 0 2.9-2.9c3-4.2 5.9-8.5 8.4-13 3.6-6.4 7.4-13.1 7.7-20.5.1-11.6 1.3-23.1.1-34.7Z"/>
      <path d="M52.9 67.9c-2-1.6-4.8-2.2-7.2-3.3-5.8-2.5-11.5-6.2-17-9.5-4-4.1-7.2-9-11.1-13.2-3.7-6.3-7.9-12.4-11.4-18.8A8.1 8.1 0 0 0 4.3 20.7c-.2-.2-1.1-1-1.4-.6-1.4 2.2-1.6 5-1.8 7.5-1.3 11.5-.1 23.1.1 34.7.2 7.5 4.1 14.1 7.7 20.5 2.5 4.5 5.4 8.8 8.4 13a13.6 13.6 0 0 0 2.9 2.9c.5.6 1 1.2 1.8 1.2 2.2.2 4.2-1 6.1-1.6 2.6-1.2 5.3-2.2 7.8-3.7 5-2.5 10.4-5.3 12.8-10.7 2-4.7 3.9-9.6 4.7-14.6l.4.1c.2 0-.1-.5-.4-.8l-.6-.6Z"/>
      <path d="M48.4 77.3c-2 3.8-3.6 7.9-6.9 10.8-3.1 2.9-6.8 5-10.5 7-3.1 1.3-6.4 3-9.8 3.1l-.1-.1C15.7 90.9 10.9 83.1 7.1 74.8 4.5 68.6 4.2 62.2 3.7 55.5a116.8 116.8 0 0 1-.6-23.1c.3-3 .3-6.1 1.6-8.9 3.2 5.1 6.4 10.4 9.5 15.6 1.7 2.5 3.8 4.7 5.8 7 2.4 3.3 4.9 6.5 7.8 9.3 5 4.8 11.7 7.5 17.9 10.9 2.2 1 4.5 1.7 6.8 2.4-1.2 2.9-2.4 5.8-4 8.5ZM371.3 55.5c-.5 6.7-.8 13.1-3.5 19.3-3.7 8.3-8.5 16-14 23.3l-.1.1c-3.4-.1-6.7-1.8-9.8-3.1-3.7-2-7.4-4.2-10.5-7-3.2-2.9-4.9-7-6.9-10.8-1.5-2.7-2.8-5.6-4-8.5 2.3-.8 4.6-1.4 6.8-2.4 6.2-3.4 12.8-6.1 17.9-10.9 2.9-2.8 5.4-6.1 7.8-9.3 2-2.3 4.1-4.5 5.8-7 3.1-5.2 6.3-10.5 9.5-15.6 1.3 2.7 1.3 5.9 1.6 8.9.5 7.6.4 15.4-.6 23.1Z"/>
    </g>
  </symbol>
</svg>